# xmcd
#
# Track frame offsets:
#	150
#	11985
#	21285
#	32010
#	46260
#	59985
#	72285
#	86460
#	100785
#	113235
#
# Disc length: 1698 seconds
#
# Revision: 3
# Processed by: cddbd v1.4PL0 Copyright (c) Steve Scherf et al.
# Submitted via: audiograbber 1.82.00
#
DISCID=8506a00a
DTITLE=Ray Charles - Sittin' On The Top
DYEAR=1968
DGENRE=Soul
TTITLE0=Tell Me Baby
TTITLE1=All To Myself Alone
TTITLE2=Sittin' On The Top (Of Thr World)
TTITLE3=Kiss Me Baby
TTITLE4=I'm Gonna Drown Myself
TTITLE5=Going Down Slow
TTITLE6=Baby Let Me Hold Your Hand
TTITLE7=Blues Is My Middle Name
TTITLE8=I'm Glad For Your Sake
TTITLE9=Walkin' And Talkin'
EXTD=
EXTT0=
EXTT1=
EXTT2=
EXTT3=
EXTT4=
EXTT5=
EXTT6=
EXTT7=
EXTT8=
EXTT9=
PLAYORDER=
